<svg xmlns="http://www.w3.org/2000/svg" width="25" height="23.958" viewBox="0 0 25 23.958">
  <g id="Icon_feather-user" data-name="Icon feather-user" transform="translate(-2.958 -4.458)">
    <g id="Icon_feather-shopping-cart" data-name="Icon feather-shopping-cart" transform="translate(2.958 4.458)">
      <path id="Trazado_318" data-name="Trazado 318" d="M10.417,21.875a1.042,1.042,0,1,1-1.042-1.042,1.042,1.042,0,0,1,1.042,1.042Z" fill="none" stroke="#4b566b" stroke-linecap="round" stroke-linejoin="round" stroke-width="2.083"/>
      <path id="Trazado_319" data-name="Trazado 319" d="M21.875,21.875a1.042,1.042,0,1,1-1.042-1.042,1.042,1.042,0,0,1,1.042,1.042Z" fill="none" stroke="#4b566b" stroke-linecap="round" stroke-linejoin="round" stroke-width="2.083"/>
      <path id="Trazado_320" data-name="Trazado 320" d="M1.042,1.042H5.208L8,14.99a2.083,2.083,0,0,0,2.083,1.677H20.208a2.083,2.083,0,0,0,2.083-1.677l1.667-8.74H6.25" fill="none" stroke="#4b566b" stroke-linecap="round" stroke-linejoin="round" stroke-width="2.083"/>
    </g>
  </g>
</svg>
