<svg xmlns="http://www.w3.org/2000/svg" width="1920" height="688.584">
  <g stroke-miterlimit="10">
    <path d="M.5 688.084V74.705c57.313-22.871 199.279-57.418 444.326 14.654 162.225 47.714 276.518 86.6 369.9 114.035 3.812.035 7.62.037 11.38 0 161.673-1.446 293.033-62.071 624.316-159.508 295.314-86.857 440.941-18.86 469.083-3.07v647.268Z" fill="#013E9B" stroke="#013E9B"/>
    <path d="M.5 688.084V74.704c57.313-22.871 199.278-57.418 444.325 14.655 331.285 97.437 462.644 158.062 624.315 159.508s373.869-62.071 490.792-88.054c113.855-25.3 270.141-42.388 359.568 40.7v486.571Z" fill="#FFD300" stroke="#FFD300"/>
  </g>
</svg>
